# xmcd
#
# Track frame offsets: 
#        150
#        24322
#        46679
#        72189
#        102482
#
# Disc length: 1394 seconds
#
# Revision: 6
# Processed by: cddbd v1.5.2PL0 Copyright (c) Steve Scherf et al.
# Submitted via: ExactAudioCopyFreeDBPlugin 1.0
#
DISCID=36057005
DTITLE=Kenny Chesney - Lucky Old Sun [CD 2)
DYEAR=2008
DGENRE=Country
TTITLE0=Boston (Live)
TTITLE1=Got A Little Crazy (Live)
TTITLE2=Soul Of A Sailor (Live)
TTITLE3=Guitars And Tiki Bars (Live)
TTITLE4=PC Data
EXTD=YEAR: 2008
EXTT0=
EXTT1=
EXTT2=
EXTT3=
EXTT4=
PLAYORDER=
